<svg xmlns="http://www.w3.org/2000/svg" width="499" height="116" viewBox="14 12 470 88" role="img" aria-label="DespHub — logotipo horizontal"><title>DespHub — logotipo horizontal</title><desc>Símbolo e palavra DespHub</desc><g transform="scale(0.8)"><g transform="translate(0 0)"><path d="M22,20 L58,20 A40,40 0 0 1 58,100 L22,100 Z M44,38 L58,38 A22,22 0 0 1 58,82 L44,82 Z" fill="#12447C" fill-rule="evenodd"/><circle cx="50" cy="60" r="4.6" fill="#F26A21"/><path d="M59,50 L74,60 L59,70" fill="none" stroke="#F26A21" stroke-width="7" stroke-linecap="round" stroke-linejoin="round"/></g></g><g transform="translate(118.0 78.0) scale(0.08571428571428572 -0.08571428571428572)"><g fill="#12447C"><path d="M46.3499755859375 0V105.8507080078125H139.7498779296875V594.1492919921875H46.3499755859375V700H330.500244140625Q470.80029296875 700 544.8252563476562 628.8499755859375Q618.8502197265625 557.699951171875 618.8502197265625 415.6500244140625V284.17498779296875Q618.8502197265625 142.12506103515625 544.8252563476562 71.06253051757812Q470.80029296875 0 330.500244140625 0ZM259.8507080078125 109.1507568359375H332.1502685546875Q417.39990234375 109.1507568359375 458.07464599609375 153.07562255859375Q498.7493896484375 197.00048828125 498.7493896484375 280.3499755859375V419.47503662109375Q498.7493896484375 503.82452392578125 458.07464599609375 547.2493896484375Q417.39990234375 590.6742553710938 332.1502685546875 590.6742553710938H259.8507080078125Z" transform="translate(0 0)"/><path d="M298.7998046875 -14Q224.62481689453125 -14 168.2998046875 17.5Q111.97479248046875 49 80.56228637695312 106.41250610351562Q49.1497802734375 163.82501220703125 49.1497802734375 241.12506103515625V253.12506103515625Q49.1497802734375 330.60009765625 80.1497802734375 387.92510986328125Q111.1497802734375 445.2501220703125 166.88729858398438 476.7501220703125Q222.62481689453125 508.2501220703125 295.92486572265625 508.2501220703125Q368.0499267578125 508.2501220703125 421.7874450683594 476.4500732421875Q475.52496337890625 444.6500244140625 505.52496337890625 387.8499755859375Q535.5249633789062 331.0499267578125 535.5249633789062 255.39990234375V214.32476806640625H165.2506103515625Q167.42559814453125 156.32525634765625 206.31289672851562 121.26296997070312Q245.2001953125 86.20068359375 302.099853515625 86.20068359375Q357.72467041015625 86.20068359375 384.9120178222656 110.6005859375Q412.099365234375 135.00048828125 426.32427978515625 165.97528076171875L520.7498779296875 117.22491455078125Q506.57489013671875 90 480.07489013671875 59.32501220703125Q453.57489013671875 28.6500244140625 409.92486572265625 7.32501220703125Q366.27484130859375 -14 298.7998046875 -14ZM166.2506103515625 300.97528076171875H419.2491455078125Q415.2491455078125 350.27484130859375 381.8618469238281 379.1621398925781Q348.47454833984375 408.0494384765625 295.099853515625 408.0494384765625Q240.2501220703125 408.0494384765625 207.100341796875 379.1621398925781Q173.9505615234375 350.27484130859375 166.2506103515625 300.97528076171875Z" transform="translate(655 0)"/><path d="M276.87493896484375 -14Q181.4498291015625 -14 119.36233520507812 28.0Q57.27484130859375 70 44.099853515625 151.32476806640625L150.12554931640625 178Q157.300537109375 139.8502197265625 175.200439453125 118.01284790039062Q193.100341796875 96.17547607421875 219.52520751953125 86.88803100585938Q245.9500732421875 77.6005859375 276.87493896484375 77.6005859375Q323.67474365234375 77.6005859375 347.3870544433594 94.67547607421875Q371.099365234375 111.7503662109375 371.099365234375 138.2501220703125Q371.099365234375 164.92486572265625 348.5620422363281 178.21231079101562Q326.02471923828125 191.499755859375 279.7498779296875 199.8497314453125L248.60009765625 205.37469482421875Q197.6500244140625 215.02471923828125 155.699951171875 232.3497314453125Q113.7498779296875 249.67474365234375 88.53732299804688 280.1497802734375Q63.32476806640625 310.62481689453125 63.32476806640625 358.39990234375Q63.32476806640625 430.47503662109375 116.53732299804688 469.3625793457031Q169.7498779296875 508.2501220703125 256.699951171875 508.2501220703125Q339.699951171875 508.2501220703125 393.9125061035156 471.1626281738281Q448.12506103515625 434.07513427734375 464.42510986328125 372.1502685546875L358.099365234375 340.3499755859375Q349.7493896484375 381.8497314453125 322.97454833984375 399.2496337890625Q296.19970703125 416.6495361328125 256.699951171875 416.6495361328125Q217.37518310546875 416.6495361328125 195.92535400390625 402.6621398925781Q174.47552490234375 388.67474365234375 174.47552490234375 363.3499755859375Q174.47552490234375 336.5501708984375 196.22540283203125 323.82525634765625Q217.97528076171875 311.100341796875 255.12506103515625 304.57537841796875L286.27484130859375 299.0504150390625Q341.22491455078125 289.400390625 385.7624816894531 273.07537841796875Q430.300048828125 256.7503662109375 456.27508544921875 226.68783569335938Q482.2501220703125 196.62530517578125 482.2501220703125 145.67523193359375Q482.2501220703125 69.2501220703125 426.5375671386719 27.62506103515625Q370.82501220703125 -14 276.87493896484375 -14Z" transform="translate(1226 0)"/><path d="M73.1497802734375 -200V494.2501220703125H185.6005859375V429.17547607421875H202.5506591796875Q220.2506103515625 460.100341796875 257.7380065917969 484.17523193359375Q295.22540283203125 508.2501220703125 364.500244140625 508.2501220703125Q425.37518310546875 508.2501220703125 476.72515869140625 478.57513427734375Q528.0751342773438 448.900146484375 559.1626281738281 392.07513427734375Q590.2501220703125 335.2501220703125 590.2501220703125 254.77508544921875V239.47503662109375Q590.2501220703125 159.17498779296875 559.2501220703125 102.26248168945312Q528.2501220703125 45.3499755859375 476.900146484375 15.67498779296875Q425.5501708984375 -14 364.500244140625 -14Q318.100341796875 -14 286.37542724609375 -2.800048828125Q254.6505126953125 8.39990234375 235.27557373046875 26.037322998046875Q215.900634765625 43.67474365234375 204.5506591796875 61.899658203125H187.6005859375V-200ZM330.699951171875 86.20068359375Q393.899658203125 86.20068359375 434.67449951171875 126.41299438476562Q475.4493408203125 166.62530517578125 475.4493408203125 242.300048828125V251.9500732421875Q475.4493408203125 327.62481689453125 434.2619934082031 367.8371276855469Q393.07464599609375 408.0494384765625 330.699951171875 408.0494384765625Q268.500244140625 408.0494384765625 227.22540283203125 367.8371276855469Q185.9505615234375 327.62481689453125 185.9505615234375 251.9500732421875V242.300048828125Q185.9505615234375 166.62530517578125 227.22540283203125 126.41299438476562Q268.500244140625 86.20068359375 330.699951171875 86.20068359375Z" transform="translate(1741 0)"/></g><g fill="#F26A21"><path d="M69.499755859375 0V700H189.6005859375V405.57537841796875H466.3994140625V700H586.500244140625V0H466.3994140625V296.42462158203125H189.6005859375V0Z" transform="translate(2380 0)"/><path d="M261.7998046875 -8.3499755859375Q204.8497314453125 -8.3499755859375 161.17474365234375 17.362579345703125Q117.499755859375 43.07513427734375 93.06228637695312 89.63766479492188Q68.62481689453125 136.2001953125 68.62481689453125 198.2501220703125V494.2501220703125H183.07562255859375V207.2001953125Q183.07562255859375 147.17547607421875 212.76296997070312 117.86306762695312Q242.4503173828125 88.5506591796875 296.2501220703125 88.5506591796875Q357.22491455078125 88.5506591796875 392.37469482421875 128.97552490234375Q427.52447509765625 169.400390625 427.52447509765625 243.82501220703125V494.2501220703125H541.9752807617188V0H429.52447509765625V69.37469482421875H412.57440185546875Q399.52447509765625 41.92486572265625 365.12457275390625 16.787445068359375Q330.72467041015625 -8.3499755859375 261.7998046875 -8.3499755859375Z" transform="translate(3026 0)"/><path d="M364.500244140625 -14Q295.22540283203125 -14 257.7380065917969 10.487396240234375Q220.2506103515625 34.97479248046875 202.5506591796875 65.07464599609375H185.6005859375V0H73.1497802734375V700H187.6005859375V432.3504638671875H204.5506591796875Q215.900634765625 451.57537841796875 235.27557373046875 468.7127990722656Q254.6505126953125 485.8502197265625 286.37542724609375 497.0501708984375Q318.100341796875 508.2501220703125 364.500244140625 508.2501220703125Q425.5501708984375 508.2501220703125 476.900146484375 478.57513427734375Q528.2501220703125 448.900146484375 559.2501220703125 391.9876403808594Q590.2501220703125 335.07513427734375 590.2501220703125 254.77508544921875V239.47503662109375Q590.2501220703125 159.17498779296875 559.1626281738281 102.26248168945312Q528.0751342773438 45.3499755859375 476.72515869140625 15.67498779296875Q425.37518310546875 -14 364.500244140625 -14ZM330.699951171875 86.20068359375Q393.07464599609375 86.20068359375 434.2619934082031 126.41299438476562Q475.4493408203125 166.62530517578125 475.4493408203125 242.300048828125V251.9500732421875Q475.4493408203125 327.62481689453125 434.67449951171875 367.8371276855469Q393.899658203125 408.0494384765625 330.699951171875 408.0494384765625Q268.500244140625 408.0494384765625 227.22540283203125 367.8371276855469Q185.9505615234375 327.62481689453125 185.9505615234375 251.9500732421875V242.300048828125Q185.9505615234375 166.62530517578125 227.22540283203125 126.41299438476562Q268.500244140625 86.20068359375 330.699951171875 86.20068359375Z" transform="translate(3631 0)"/></g></g></svg>
